<?xml version="1.0" standalone="no"?>
<svg viewBox="-157 -5 345 184" xmlns="http://www.w3.org/2000/svg">
  <path fill="#BAE6FF" d="M30.5,-48.9C34.9,-38.9,30.6,-23.7,31.4,-12.3C32.3,-0.9,38.2,6.7,37.7,13.5C37.3,20.4,30.4,26.4,23,34.7C15.7,43.1,7.8,53.7,-5.4,61.1C-18.6,68.5,-37.1,72.6,-43.7,64C-50.3,55.4,-45,34.1,-48.5,17.2C-52.1,0.2,-64.6,-12.4,-62.5,-20.7C-60.4,-29.1,-43.7,-33.1,-30.8,-40.4C-18,-47.7,-9,-58.3,2.1,-61.1C13.1,-64,26.2,-59,30.5,-48.9Z" transform="translate(100 100)" opacity="0.5" />
</svg>
