<?xml version="1.0" standalone="no"?>
<svg viewBox="-25 -12 460 225" xmlns="http://www.w3.org/2000/svg">
  <path fill="#ADEBFF" d="M44.8,-73.6C58.9,-69.4,71.7,-59.1,76.5,-45.8C81.3,-32.5,78.1,-16.3,78.1,0C78.1,16.3,81.5,32.6,76.4,45.5C71.4,58.3,58,67.7,43.8,72.6C29.7,77.4,14.8,77.7,-0.9,79.2C-16.6,80.7,-33.1,83.4,-43.7,76.5C-54.4,69.6,-59,53.2,-66.5,38.9C-74,24.5,-84.4,12.3,-83.1,0.7C-81.8,-10.8,-69,-21.6,-59.3,-32.1C-49.6,-42.6,-42.9,-52.7,-33.6,-59.6C-24.2,-66.4,-12.1,-70,1.6,-72.8C15.3,-75.6,30.7,-77.7,44.8,-73.6Z" transform="translate(100 100)" />
</svg>
