<?xml version="1.0" standalone="no"?>
<svg viewBox="0 0 200 200" xmlns="http://www.w3.org/2000/svg">
  <path fill="#BAE6FF" d="M32.7,-55.9C38.5,-47.2,36.4,-31.5,43.2,-19C50,-6.6,65.5,2.5,70.4,14.4C75.4,26.3,69.7,40.9,59.3,49.4C48.8,57.8,33.6,60.1,18.5,66C3.3,71.9,-11.7,81.4,-24.7,79.6C-37.7,77.9,-48.7,64.8,-52.9,50.9C-57.1,37,-54.4,22.2,-57.8,7.5C-61.1,-7.2,-70.5,-21.8,-70.4,-36.4C-70.4,-51,-60.9,-65.6,-47.6,-70.7C-34.3,-75.9,-17.2,-71.6,-1.8,-68.8C13.5,-65.9,27,-64.5,32.7,-55.9Z" transform="translate(100 100)" />
</svg>